<svg width="28" height="22" viewBox="0 0 28 22" fill="none" xmlns="http://www.w3.org/2000/svg">
<path d="M22.4141 11.0789C25.5085 11.0789 27.5938 13.2312 27.5938 16.4203C27.5938 19.2901 25.1971 21.6809 21.9509 21.6809C18.3952 21.6809 15.7679 18.8111 15.7679 14.4276C15.7679 4.46429 23.033 0.47895 27.5938 0V4.38348C24.5013 4.94127 21.0245 8.04951 20.8688 11.479C21.0245 11.4002 21.6414 11.0789 22.4141 11.0789ZM6.64814 11.0789C9.73865 11.0789 11.8259 13.2312 11.8259 16.4203C11.8259 19.2901 9.4292 21.6809 6.18299 21.6809C2.62733 21.6809 0 18.8111 0 14.4276C0 4.46429 7.26506 0.47895 11.8259 0V4.38348C8.73345 4.94127 5.25662 8.04951 5.10091 11.479C5.25662 11.4002 5.87354 11.0789 6.64814 11.0789Z" fill="white"/>
</svg>
