<svg width="28" height="22" viewBox="0 0 28 22" fill="none" xmlns="http://www.w3.org/2000/svg">
<path d="M5.1798 10.6017C2.08535 10.6017 4.95911e-05 8.44943 4.95911e-05 5.26037C4.95911e-05 2.39061 2.39677 -0.000196457 5.64299 -0.000196457C9.19865 -0.000196457 11.826 2.86956 11.826 7.25304C11.826 17.2164 4.56091 21.2017 4.95911e-05 21.6807V17.2972C3.09253 16.7394 6.56935 13.6312 6.72506 10.2016C6.56935 10.2805 5.95243 10.6017 5.1798 10.6017ZM20.9457 10.6017C17.8552 10.6017 15.7679 8.44943 15.7679 5.26037C15.7679 2.39061 18.1647 -0.000196457 21.4109 -0.000196457C24.9665 -0.000196457 27.5939 2.86956 27.5939 7.25304C27.5939 17.2164 20.3288 21.2017 15.7679 21.6807L15.7679 17.2972C18.8604 16.7394 22.3372 13.6312 22.493 10.2016C22.3372 10.2805 21.7203 10.6017 20.9457 10.6017Z" fill="white"/>
</svg>
